<svg width="29" height="30" viewBox="0 0 29 30" fill="none" xmlns="http://www.w3.org/2000/svg">
<g clip-path="url(#clip0_1_2692)">
<path d="M23.6464 6.29605L22.8501 7.11977C24.7501 9.26922 25.8038 12.0764 25.8038 14.9891C25.8038 17.9017 24.7501 20.7089 22.8501 22.8584L23.6464 23.6821C25.7594 21.3111 26.9325 18.2043 26.9325 14.9795C26.9325 11.7546 25.7594 8.64783 23.6464 6.27682V6.29605Z" fill="#5A5564"/>
<path d="M6.90078 6.36736C8.97859 4.40182 11.6922 3.31183 14.5078 3.31183C17.3233 3.31183 20.037 4.40182 22.1148 6.36736L22.911 5.54364C20.6191 3.35775 17.6159 2.14417 14.4985 2.14417C11.3811 2.14417 8.37791 3.35775 6.08594 5.54364L6.90078 6.36736Z" fill="#5A5564"/>
<path d="M6.15517 22.8666C4.2574 20.7176 3.20513 17.9121 3.20513 15.0014C3.20513 12.0907 4.2574 9.2852 6.15517 7.13622L5.35891 6.3125C3.24588 8.6835 2.07275 11.7903 2.07275 15.0151C2.07275 18.24 3.24588 21.3468 5.35891 23.7178L6.15517 22.8666Z" fill="#5A5564"/>
<path d="M22.1045 23.6271C20.0267 25.5926 17.3131 26.6826 14.4975 26.6826C11.6819 26.6826 8.96831 25.5926 6.8905 23.6271L6.09424 24.4508C8.38621 26.6367 11.3894 27.8503 14.5068 27.8503C17.6242 27.8503 20.6274 26.6367 22.9193 24.4508L22.1045 23.6271Z" fill="#5A5564"/>
<path d="M19.527 12.2516C19.3678 10.5327 17.9345 9.95613 16.1217 9.78041V7.41357H14.7203V9.73647C14.3513 9.73647 13.9744 9.73647 13.6002 9.73647V7.41357H12.2094V9.79688H9.3667V11.3482C9.3667 11.3482 10.4018 11.329 10.3859 11.3482C10.5726 11.327 10.7599 11.3815 10.9084 11.5004C11.057 11.6192 11.1551 11.793 11.1822 11.9852V18.5091C11.1782 18.5769 11.1611 18.6432 11.1319 18.704C11.1028 18.7649 11.0621 18.819 11.0123 18.8633C10.9635 18.9085 10.9063 18.9429 10.8443 18.9646C10.7823 18.9863 10.7166 18.9948 10.6513 18.9896C10.6699 19.0061 9.63212 18.9896 9.63212 18.9896L9.3667 20.7222H12.1828V23.1439H13.5843V20.7579H14.7043V23.133H16.1084V20.7387C18.476 20.5904 20.1269 19.9863 20.3339 17.6936C20.5011 15.8485 19.6624 15.0248 18.322 14.6925C19.1369 14.2779 19.6412 13.5091 19.527 12.2516ZM17.5629 17.4081C17.5629 19.2093 14.5796 19.0034 13.6294 19.0034V15.8073C14.5796 15.8101 17.5629 15.5272 17.5629 17.4081ZM16.9126 12.9051C16.9126 14.5525 14.423 14.3521 13.632 14.3521V11.4471C14.423 11.4471 16.9126 11.189 16.9126 12.9051Z" fill="#F09242"/>
<path d="M14.4974 30C11.6297 29.9994 8.82669 29.1193 6.44258 27.4709C4.05848 25.8224 2.20039 23.4797 1.10325 20.739C0.00610376 17.9982 -0.280821 14.9824 0.278749 12.0729C0.83832 9.16349 2.21926 6.491 4.24696 4.39337C6.27466 2.29575 8.85807 0.867197 11.6705 0.288331C14.483 -0.290535 17.3983 0.00628371 20.0477 1.14126C22.6971 2.27623 24.9617 4.19839 26.5552 6.66471C28.1487 9.13103 28.9995 12.0307 29 14.9972C29.0004 16.9675 28.6255 18.9186 27.8968 20.739C27.1681 22.5593 26.0998 24.2134 24.7531 25.6066C23.4063 26.9998 21.8074 28.1049 20.0477 28.8587C18.288 29.6125 16.402 30.0003 14.4974 30ZM14.4974 1.16966C11.8554 1.17184 9.27339 1.98419 7.07764 3.50406C4.88189 5.02393 3.17098 7.18307 2.16116 9.7086C1.15135 12.2341 0.887953 15.0127 1.40427 17.693C1.92059 20.3733 3.19344 22.8352 5.06195 24.7674C6.93046 26.6995 9.31074 28.0153 11.902 28.5484C14.4932 29.0814 17.179 28.8078 19.6199 27.7622C22.0608 26.7166 24.1473 24.9458 25.6157 22.6737C27.084 20.4017 27.8683 17.7303 27.8693 14.9972C27.87 13.1807 27.5246 11.3818 26.8527 9.70353C26.1809 8.0252 25.1959 6.50033 23.954 5.21611C22.7121 3.93189 21.2376 2.9135 19.615 2.21918C17.9924 1.52486 16.2533 1.16822 14.4974 1.16966Z" fill="#282138"/>
</g>
<defs>
<clipPath id="clip0_1_2692">
<rect width="29" height="30" fill="white"/>
</clipPath>
</defs>
</svg>
