<svg width="19" height="30" viewBox="0 0 19 30" fill="none" xmlns="http://www.w3.org/2000/svg">
<path d="M9.03548 0.0438591V0.0584788C9.0501 0.131577 9.0501 0.219295 9.0501 0.307014V10.8478C9.03548 10.9063 8.99162 10.9209 8.94777 10.9501C8.64075 11.0963 8.34836 11.2279 8.04134 11.3595C7.61737 11.5496 7.17878 11.7542 6.75481 11.9443L5.21974 12.646C4.79577 12.8361 4.3718 13.0261 3.96245 13.2162C3.46538 13.4501 2.95369 13.6694 2.45662 13.9033C2.03265 14.0934 1.60868 14.2981 1.17009 14.4881C0.819219 14.6489 0.468347 14.7951 0.132094 14.9559C0.102855 14.9706 0.0736155 14.9852 0.0443761 14.9852C0.0297564 14.9852 0.0297564 14.9852 0.0151367 14.9706L0.409868 14.3127C1.17009 13.0554 1.9157 11.8127 2.67592 10.5554C3.48 9.2104 4.2987 7.86539 5.10279 6.52038C5.84839 5.27771 6.60862 4.03503 7.35422 2.79236C7.89515 1.88594 8.4507 0.979519 8.99162 0.0730985C9.00624 0.0438591 9.02086 0.0292394 9.02086 0H9.03548C9.02086 0.0146197 9.03548 0.0292394 9.03548 0.0438591Z" fill="#8A92B2"/>
<path d="M18.0116 14.9706L18.0262 14.9852L15.8771 16.2571L9.12282 20.2483C9.09358 20.2629 9.06434 20.2775 9.04972 20.2922C9.00586 20.2922 9.00586 20.2483 9.00586 20.2337V20.1021V11.0671C9.00586 11.0233 9.00586 10.9648 9.02048 10.9209C9.0351 10.8625 9.07896 10.8771 9.12282 10.8917C9.31287 10.9794 9.51755 11.0671 9.7076 11.1549C10.2778 11.418 10.8479 11.6812 11.4181 11.9297C11.9152 12.149 12.3976 12.3829 12.8947 12.6022C13.3918 12.8215 13.8888 13.0554 14.3859 13.2747C14.8099 13.4648 15.2485 13.6694 15.6724 13.8595C16.0964 14.0496 16.535 14.2542 16.959 14.4443C17.2952 14.5905 17.6315 14.7513 17.9677 14.8975C17.9677 14.9414 17.9824 14.956 18.0116 14.9706Z" fill="#454A75"/>
<path d="M9.035 29.371C9.035 29.3856 9.02038 29.4002 9.02038 29.4148H9.00576C9.00576 29.3856 8.97652 29.371 8.9619 29.3417C8.05548 28.0698 7.14906 26.7833 6.24263 25.5114C5.32159 24.2102 4.38593 22.8945 3.46489 21.5933C2.57309 20.336 1.66667 19.0641 0.774872 17.8068C0.540957 17.4705 0.307042 17.1489 0.0731272 16.8127C0.0585075 16.7834 0.0438878 16.7688 0.0146484 16.7249C0.0585075 16.7249 0.0877469 16.7542 0.102367 16.7688C1.37428 17.5144 2.63157 18.26 3.90348 19.0056C5.36545 19.8682 6.8128 20.7307 8.27477 21.5933L9.02038 22.0319C9.04961 22.0611 9.04961 22.0904 9.04961 22.1196V29.1663C9.04961 29.2394 9.04961 29.3125 9.035 29.371Z" fill="#8A92B2"/>
<path d="M0 14.9999V14.9852C0.46783 14.7806 0.92104 14.5613 1.38887 14.3566C1.98828 14.0788 2.58768 13.8157 3.18709 13.5379C3.6403 13.3332 4.10813 13.1139 4.56134 12.9092C5.23385 12.6022 5.89173 12.3098 6.56424 12.0028C7.01745 11.7981 7.47066 11.5935 7.93849 11.3742C8.26012 11.228 8.59638 11.0818 8.91801 10.9356C8.94725 10.921 8.99111 10.9063 9.00573 10.8771C9.02035 10.8771 9.02035 10.8917 9.00573 10.9063V20.1898C9.00573 20.2337 8.99111 20.2776 9.02035 20.3068C8.99111 20.3507 8.96187 20.3068 8.94725 20.2922C8.81567 20.2191 8.68409 20.146 8.55252 20.0583C5.73092 18.3916 2.8947 16.7104 0.0730984 15.0437C0.0584788 15.0291 0.0292394 15.0145 0 14.9999Z" fill="#62688F"/>
<path d="M17.9824 16.7249H17.997C17.997 16.7542 17.9678 16.7834 17.9531 16.8127C15.2631 20.5992 12.5731 24.4003 9.88307 28.1868C9.6053 28.5815 9.3129 28.9762 9.03513 29.371C9.02051 29.3564 9.02051 29.3417 9.02051 29.3271V29.2394V22.1488V22.0173C9.63453 21.6518 10.2339 21.3009 10.848 20.9354C13.2164 19.5319 15.5847 18.1431 17.9385 16.7396C17.9531 16.7542 17.9678 16.7396 17.9824 16.7249Z" fill="#62688F"/>
<path d="M9.02045 10.9063V10.8771V10.7894V0.17549C9.02045 0.131631 9.00583 0.102392 9.03507 0.0585327C12.0029 4.98537 14.9707 9.89758 17.9238 14.8244C17.9531 14.8683 17.9969 14.9268 18.0116 14.9852C17.8069 14.9121 17.6168 14.8098 17.4268 14.7221C17.1929 14.6197 16.9443 14.5028 16.7104 14.4004C16.5642 14.3273 16.4034 14.2689 16.2572 14.1958C16.0087 14.0788 15.7601 13.9765 15.5116 13.8595C15.3654 13.801 15.2192 13.7279 15.073 13.6548L14.1081 13.2163C13.9473 13.1432 13.7865 13.0701 13.611 12.997L12.9093 12.6899C12.7631 12.6315 12.6169 12.5584 12.4707 12.4853L11.5058 12.0467C11.345 11.9736 11.1842 11.9005 11.0087 11.8274L10.307 11.5204C10.1462 11.4473 9.99997 11.3742 9.83915 11.3011C9.56138 11.1695 9.2836 11.0379 8.99121 10.921C9.03507 10.9063 9.02045 10.9063 9.02045 10.9063Z" fill="#62688F"/>
</svg>
