<svg width="16" height="20" viewBox="0 0 16 20" fill="none" xmlns="http://www.w3.org/2000/svg">
<path d="M2 14.4444C3.2 15.5556 5.6 16.6667 8 16.6667M8 16.6667C11 16.6667 14 16.1111 14 13.3333C14 10.5556 11.0594 10 8 10M8 16.6667V10M8 16.6667V20M8 10C5 10 2 9.44444 2 6.66667C2 3.88889 5 3.33333 8 3.33333M8 10V3.33333M8 3.33333C10.4 3.33333 12.8 4.44444 14 5.55556M8 3.33333V0" stroke="url(#paint0_linear_258_985)" stroke-width="3"/>
<defs>
<linearGradient id="paint0_linear_258_985" x1="2.13953" y1="5.42373" x2="13.8751" y2="5.48285" gradientUnits="userSpaceOnUse">
<stop offset="0.29" stop-color="#EE9833"/>
<stop offset="1" stop-color="#C6B419"/>
</linearGradient>
</defs>
</svg>
