<svg width="38" height="38" viewBox="0 0 38 38" fill="none" xmlns="http://www.w3.org/2000/svg">
<path d="M17.2819 7.20024C18.3139 6.47933 19.6861 6.47933 20.7181 7.20024L29.5195 13.3489C30.6124 14.1124 31.0703 15.5056 30.6435 16.7686L27.3304 26.5731C26.9185 27.7921 25.775 28.6127 24.4883 28.6127H13.5117C12.225 28.6127 11.0815 27.7921 10.6696 26.5731L7.35647 16.7686C6.92967 15.5056 7.3876 14.1124 8.48052 13.3489L17.2819 7.20024Z" fill="#888430"/>
<path d="M18.4407 12.3773C18.7787 12.1493 19.2213 12.1493 19.5593 12.3773L25.0181 16.0601C25.3948 16.3142 25.5528 16.7904 25.4027 17.2193L23.3488 23.0889C23.2085 23.49 22.8299 23.7586 22.405 23.7586H15.595C15.1701 23.7586 14.7915 23.49 14.6512 23.0889L12.5973 17.2193C12.4472 16.7904 12.6052 16.3142 12.9819 16.0601L18.4407 12.3773Z" fill="#AAA75B"/>
<circle cx="19" cy="19" r="19" fill="url(#paint0_linear_1_245)" fill-opacity="0.34"/>
<defs>
<linearGradient id="paint0_linear_1_245" x1="19" y1="38" x2="19" y2="0" gradientUnits="userSpaceOnUse">
<stop stop-color="#747474" stop-opacity="0.32"/>
<stop offset="1" stop-color="#DADADA" stop-opacity="0.74"/>
</linearGradient>
</defs>
</svg>
