<svg width="55" height="36" viewBox="0 0 55 36" fill="none" xmlns="http://www.w3.org/2000/svg">
<g clip-path="url(#clip0_42_644)">
<path d="M0 0H55V36H0V0Z" fill="white"/>
<path d="M0 0H55V2.76842H0V0ZM0 5.53684H55V8.30526H0V5.53684ZM0 11.0737H55V13.8421H0V11.0737ZM0 16.6105H55V19.3789H0V16.6105ZM0 22.1579H55V24.9263H0V22.1579ZM0 27.6947H55V30.4632H0V27.6947ZM0 33.2316H55V36H0V33.2316Z" fill="#D80027"/>
<path d="M0 0H27.5V19.3789H0V0Z" fill="#2E52B2"/>
<path d="M5.12475 14.621L4.6959 13.2737L4.22416 14.621H2.80896L3.95613 15.4316L3.52728 16.7789L4.6959 15.9473L5.83235 16.7789L5.39278 15.4316L6.5614 14.621H5.12475ZM11.1608 14.621L10.7212 13.2737L10.2709 14.621H8.85574L10.0029 15.4316L9.57407 16.7789L10.7212 15.9473L11.8791 16.7789L11.4503 15.4316L12.5975 14.621H11.1608ZM17.2183 14.621L16.7573 13.2737L16.3285 14.621H14.8811L16.0604 15.4316L15.6101 16.7789L16.7573 15.9473L17.9366 16.7789L17.4863 15.4316L18.6335 14.621H17.2183ZM23.2437 14.621L22.8148 13.2737L22.3645 14.621H20.9386L22.0965 15.4316L21.6676 16.7789L22.8148 15.9473L23.9727 16.7789L23.5117 15.4316L24.691 14.621H23.2437ZM10.7212 7.92629L10.2709 9.27366H8.85574L10.0029 10.1052L9.57407 11.4316L10.7212 10.6105L11.8791 11.4316L11.4503 10.1052L12.5975 9.27366H11.1608L10.7212 7.92629ZM4.6959 7.92629L4.22416 9.27366H2.80896L3.95613 10.1052L3.52728 11.4316L4.6959 10.6105L5.83235 11.4316L5.39278 10.1052L6.5614 9.27366H5.12475L4.6959 7.92629ZM16.7573 7.92629L16.3285 9.27366H14.8811L16.0604 10.1052L15.6101 11.4316L16.7573 10.6105L17.9366 11.4316L17.4863 10.1052L18.6335 9.27366H17.2183L16.7573 7.92629ZM22.8148 7.92629L22.3645 9.27366H20.9386L22.0965 10.1052L21.6676 11.4316L22.8148 10.6105L23.9727 11.4316L23.5117 10.1052L24.691 9.27366H23.2437L22.8148 7.92629ZM4.6959 2.59998L4.22416 3.92629H2.80896L3.95613 4.75787L3.52728 6.09471L4.6959 5.26313L5.83235 6.09471L5.39278 4.75787L6.5614 3.92629H5.12475L4.6959 2.59998ZM10.7212 2.59998L10.2709 3.92629H8.85574L10.0029 4.75787L9.57407 6.09471L10.7212 5.26313L11.8791 6.09471L11.4503 4.75787L12.5975 3.92629H11.1608L10.7212 2.59998ZM16.7573 2.59998L16.3285 3.92629H14.8811L16.0604 4.75787L15.6101 6.09471L16.7573 5.26313L17.9366 6.09471L17.4863 4.75787L18.6335 3.92629H17.2183L16.7573 2.59998ZM22.8148 2.59998L22.3645 3.92629H20.9386L22.0965 4.75787L21.6676 6.09471L22.8148 5.26313L23.9727 6.09471L23.5117 4.75787L24.691 3.92629H23.2437L22.8148 2.59998Z" fill="white"/>
</g>
<defs>
<clipPath id="clip0_42_644">
<rect width="55" height="36" rx="4" fill="white"/>
</clipPath>
</defs>
</svg>
