<svg width="305" height="171" viewBox="0 0 305 171" fill="none" xmlns="http://www.w3.org/2000/svg">
<rect x="0.668583" y="43.1906" width="97" height="139" rx="34.5" transform="rotate(-26 0.668583 43.1906)" fill="black" stroke="#4B4B4B"/>
<g filter="url(#filter0_d_399_1142)">
<circle cx="74.9351" cy="85.9632" r="25.5" transform="rotate(-26 74.9351 85.9632)" fill="#DDAC4A"/>
</g>
<path fill-rule="evenodd" clip-rule="evenodd" d="M59.6992 78.9268L79.3941 69.3208C80.0909 68.981 80.8336 68.7367 81.7153 68.6976C82.7721 68.6507 83.5256 69.0218 84.0649 69.3049C84.1068 69.3269 84.1477 69.3508 84.1871 69.3764C84.8761 69.822 85.405 70.4079 85.7627 71.1412C86.1025 71.838 86.2947 72.684 86.2181 73.5404C86.2175 73.5487 86.2166 73.5568 86.2158 73.565L83.4783 99.5329C83.4179 100.106 83.0442 100.621 82.4979 100.885C81.9516 101.15 81.3156 101.122 80.8297 100.814L58.9305 86.9146C58.9244 86.911 58.9183 86.9073 58.9121 86.9036C58.4234 86.6111 57.6677 86.1587 57.1746 85.3398C56.7213 84.5866 56.5267 83.7054 56.618 82.8145C56.7092 81.9235 57.082 81.065 57.688 80.3552C58.3377 79.5942 59.1721 79.1839 59.6992 78.9268ZM69.33 77.7484L61.0857 81.7695C60.544 82.0336 60.3512 82.1661 60.2367 82.3003C60.0783 82.4857 59.9796 82.7117 59.9553 82.9484C59.9311 83.1853 59.9828 83.4208 60.1042 83.6226C60.1738 83.7382 60.2942 83.8507 60.8401 84.1777C60.8515 84.1846 60.8628 84.1916 60.8741 84.1987L77.6778 94.8639L69.33 77.7484ZM72.3835 76.2591L80.768 93.4499L82.8777 73.4369C82.8966 73.201 82.8409 72.9007 82.7092 72.6305C82.6023 72.4114 82.4607 72.2449 82.2559 72.1019C82.0666 72.0045 81.9573 71.9573 81.8719 71.9302C81.7987 71.9071 81.7478 71.9004 81.6818 71.9034C81.4071 71.9155 81.1524 71.9822 80.7806 72.1636L72.3835 76.2591Z" fill="#D47B28"/>
<rect x="216.602" y="2.66855" width="97" height="139" rx="34.5" transform="rotate(26 216.602 2.66855)" fill="black" stroke="#4B4B4B"/>
<g filter="url(#filter1_d_399_1142)">
<circle cx="229.445" cy="86.9556" r="21.9416" transform="rotate(26 229.445 86.9556)" fill="#D9D9D9"/>
</g>
<path d="M254.595 95.4282C255.302 95.6661 256.07 95.2871 256.274 94.5702C257.561 90.0361 257.68 85.242 256.608 80.6371C255.537 76.0322 253.315 71.7826 250.159 68.282C249.66 67.7285 248.803 67.7277 248.274 68.2529V68.2529C247.745 68.7781 247.746 69.6301 248.242 70.1862C251.046 73.3294 253.022 77.1318 253.98 81.2485C254.937 85.3653 254.842 89.6495 253.713 93.7077C253.513 94.4256 253.889 95.1902 254.595 95.4282V95.4282Z" fill="#D78E4D"/>
<path d="M210.34 76.1648C213.202 71.0979 217.96 67.3754 223.566 65.8162C229.173 64.257 235.169 64.9889 240.236 67.8508L229.445 86.9556L210.34 76.1648Z" fill="#9EE1A4" fill-opacity="0.8"/>
<path d="M207.562 88.5553C207.525 88.0489 207.505 87.5413 207.504 87.0335L229.445 86.9556L207.562 88.5553Z" fill="#586C73" fill-opacity="0.8"/>
<path d="M207.945 91.3345C208.808 95.5735 210.905 99.4627 213.973 102.513L229.445 86.9556L207.945 91.3345Z" fill="#30A1C5" fill-opacity="0.8"/>
<path d="M242.646 104.482C243.79 103.62 244.847 102.648 245.802 101.581L229.445 86.9556L242.646 104.482Z" fill="#C53030" fill-opacity="0.8"/>
<path d="M245.807 101.575C246.496 100.804 247.13 99.9844 247.704 99.1235L229.445 86.9556L245.807 101.575Z" fill="#DC752B" fill-opacity="0.8"/>
<path d="M240.093 106.14C240.997 105.638 241.865 105.073 242.69 104.449L229.445 86.9556L240.093 106.14Z" fill="#64DC2B" fill-opacity="0.8"/>
<path d="M213.906 102.446C217.259 105.81 221.613 107.995 226.314 108.673C231.015 109.35 235.809 108.485 239.975 106.205L229.445 86.9556L213.906 102.446Z" fill="#2A5316" fill-opacity="0.8"/>
<path d="M207.504 87.1202C207.499 86.432 207.526 85.744 207.586 85.0583L229.445 86.9556L207.504 87.1202Z" fill="#A36DCD" fill-opacity="0.8"/>
<path d="M207.58 85.1281C207.665 84.1108 207.821 83.1007 208.046 82.1051L229.445 86.9556L207.58 85.1281Z" fill="#6DCDCD" fill-opacity="0.8"/>
<path d="M208.047 82.1015C208.511 80.0587 209.264 78.0928 210.285 76.2636L229.445 86.9556L208.047 82.1015Z" fill="#FF60A3" fill-opacity="0.8"/>
<path d="M207.697 89.8633C207.64 89.4351 207.595 89.0054 207.563 88.5747L229.445 86.9556L207.697 89.8633Z" fill="#888FB9" fill-opacity="0.8"/>
<path d="M207.956 91.3889C207.852 90.8855 207.766 90.3787 207.698 89.8693L229.445 86.9556L207.956 91.3889Z" fill="#C86B6B" fill-opacity="0.8"/>
<circle cx="229.422" cy="86.8871" r="0.56392" transform="rotate(26 229.422 86.8871)" fill="black"/>
<path d="M203.939 79.6253C203.222 79.4195 202.471 79.8327 202.3 80.5581C201.219 85.1455 201.317 89.9402 202.594 94.4921C203.872 99.044 206.284 103.189 209.594 106.544C210.118 107.074 210.974 107.037 211.478 106.488V106.488C211.983 105.94 211.944 105.088 211.424 104.555C208.481 101.542 206.335 97.8322 205.193 93.7628C204.05 89.6934 203.952 85.4092 204.898 81.3043C205.065 80.5781 204.655 79.8312 203.939 79.6253V79.6253Z" fill="#D78E4D"/>
<path d="M241.332 65.9085L239.505 67.1671L239.372 64.9522L241.199 63.6936L241.332 65.9085Z" fill="#DDAC4A" stroke="#D78E4D" stroke-width="3"/>
<mask id="path-22-inside-1_399_1142" fill="white">
<path d="M238.167 69.9096L238.077 68.077L239.577 67.0197L239.667 68.8522L238.167 69.9096Z"/>
</mask>
<path d="M238.167 69.9096L238.077 68.077L239.577 67.0197L239.667 68.8522L238.167 69.9096Z" fill="#DDAC4A"/>
<path d="M238.167 69.9096L235.171 70.0567L235.438 75.5046L239.896 72.3613L238.167 69.9096ZM238.077 68.077L236.349 65.6253L235 66.5761L235.081 68.2242L238.077 68.077ZM239.577 67.0197L242.573 66.8726L242.306 61.4246L237.848 64.568L239.577 67.0197ZM239.667 68.8522L241.396 71.304L242.744 70.3531L242.663 68.7051L239.667 68.8522ZM241.164 69.7624L241.074 67.9299L235.081 68.2242L235.171 70.0567L241.164 69.7624ZM239.806 70.5288L241.306 69.4715L237.848 64.568L236.349 65.6253L239.806 70.5288ZM236.58 67.1669L236.67 68.9994L242.663 68.7051L242.573 66.8726L236.58 67.1669ZM237.938 66.4005L236.439 67.4578L239.896 72.3613L241.396 71.304L237.938 66.4005Z" fill="#D78E4D" mask="url(#path-22-inside-1_399_1142)"/>
<path d="M241.397 65.6717C241.144 66.1904 240.518 66.4058 240 66.1528C239.481 65.8998 239.266 65.2742 239.518 64.7555C239.771 64.2368 240.397 64.0214 240.916 64.2744C241.434 64.5274 241.65 65.153 241.397 65.6717ZM239.717 64.8522C239.517 65.2615 239.687 65.755 240.096 65.9547C240.506 66.1543 240.999 65.9843 241.199 65.575C241.398 65.1658 241.228 64.6722 240.819 64.4726C240.41 64.273 239.916 64.4429 239.717 64.8522Z" fill="#D9D9D9"/>
<rect x="100.5" y="5.5" width="97" height="139" rx="34.5" fill="black" stroke="#4B4B4B"/>
<path d="M128 98C139.463 97.5866 164.712 89.4079 174 60" stroke="#DDAC4A" stroke-width="8"/>
<path d="M132.044 73.316L133.532 73.604C133.532 73.644 133.524 73.72 133.508 73.832C133.492 73.944 133.436 74 133.34 74L131.408 73.952L129.452 74C129.356 74 129.3 73.944 129.284 73.832C129.268 73.72 129.26 73.644 129.26 73.604L131.108 73.316V68.012L129.512 68.408C129.456 68.408 129.404 68.364 129.356 68.276C129.308 68.18 129.268 68.084 129.236 67.988C129.212 67.884 129.2 67.816 129.2 67.784C129.2 67.784 129.28 67.764 129.44 67.724C129.608 67.684 129.816 67.64 130.064 67.592C130.312 67.536 130.564 67.484 130.82 67.436C131.076 67.38 131.296 67.336 131.48 67.304C131.672 67.264 131.788 67.244 131.828 67.244C131.876 67.268 131.924 67.312 131.972 67.376C132.02 67.432 132.044 67.512 132.044 67.616V73.316ZM135.473 72.548C135.633 72.548 135.745 72.624 135.809 72.776C135.873 72.92 135.905 73.092 135.905 73.292C135.905 73.468 135.889 73.636 135.857 73.796C135.833 73.956 135.821 74.036 135.821 74.036C135.821 74.036 135.741 74.052 135.581 74.084C135.421 74.124 135.273 74.144 135.137 74.144C134.961 74.144 134.841 74.068 134.777 73.916C134.721 73.764 134.693 73.596 134.693 73.412C134.693 73.228 134.709 73.052 134.741 72.884C134.773 72.716 134.789 72.632 134.789 72.632C134.789 72.632 134.869 72.62 135.029 72.596C135.197 72.564 135.345 72.548 135.473 72.548ZM137.048 72.092C137.048 71.868 137.1 71.62 137.204 71.348C137.308 71.076 137.476 70.808 137.708 70.544C137.94 70.28 138.244 70.048 138.62 69.848C138.236 69.616 137.92 69.332 137.672 68.996C137.432 68.66 137.312 68.26 137.312 67.796C137.312 67.468 137.4 67.168 137.576 66.896C137.76 66.616 138.02 66.396 138.356 66.236C138.692 66.068 139.1 65.984 139.58 65.984C140.012 65.984 140.392 66.068 140.72 66.236C141.056 66.396 141.316 66.616 141.5 66.896C141.684 67.168 141.776 67.48 141.776 67.832C141.776 68.144 141.668 68.492 141.452 68.876C141.244 69.252 140.9 69.58 140.42 69.86C140.692 70.02 140.952 70.208 141.2 70.424C141.448 70.632 141.652 70.876 141.812 71.156C141.98 71.436 142.064 71.764 142.064 72.14C142.064 72.5 141.964 72.832 141.764 73.136C141.564 73.44 141.272 73.684 140.888 73.868C140.512 74.052 140.052 74.144 139.508 74.144C139.02 74.144 138.592 74.056 138.224 73.88C137.856 73.696 137.568 73.448 137.36 73.136C137.152 72.824 137.048 72.476 137.048 72.092ZM138.26 67.796C138.26 68.1 138.368 68.372 138.584 68.612C138.8 68.844 139.044 69.04 139.316 69.2L139.964 69.584C140.268 69.344 140.484 69.068 140.612 68.756C140.748 68.444 140.816 68.156 140.816 67.892C140.816 67.54 140.712 67.232 140.504 66.968C140.304 66.704 139.992 66.572 139.568 66.572C139.152 66.572 138.828 66.688 138.596 66.92C138.372 67.144 138.26 67.436 138.26 67.796ZM140.108 70.76L139.1 70.148C138.756 70.412 138.496 70.72 138.32 71.072C138.144 71.416 138.056 71.736 138.056 72.032C138.056 72.44 138.172 72.796 138.404 73.1C138.644 73.404 139.016 73.556 139.52 73.556C139.792 73.556 140.04 73.5 140.264 73.388C140.496 73.276 140.684 73.12 140.828 72.92C140.972 72.712 141.044 72.464 141.044 72.176C141.044 71.824 140.944 71.536 140.744 71.312C140.552 71.08 140.34 70.896 140.108 70.76ZM146.646 73.316L148.134 73.604C148.134 73.644 148.126 73.72 148.11 73.832C148.094 73.944 148.038 74 147.942 74L146.01 73.952L144.054 74C143.958 74 143.902 73.944 143.886 73.832C143.87 73.72 143.862 73.644 143.862 73.604L145.71 73.316V68.012L144.114 68.408C144.058 68.408 144.006 68.364 143.958 68.276C143.91 68.18 143.87 68.084 143.838 67.988C143.814 67.884 143.802 67.816 143.802 67.784C143.802 67.784 143.882 67.764 144.042 67.724C144.21 67.684 144.418 67.64 144.666 67.592C144.914 67.536 145.166 67.484 145.422 67.436C145.678 67.38 145.898 67.336 146.082 67.304C146.274 67.264 146.39 67.244 146.43 67.244C146.478 67.268 146.526 67.312 146.574 67.376C146.622 67.432 146.646 67.512 146.646 67.616V73.316Z" fill="#DDAC4A"/>
<defs>
<filter id="filter0_d_399_1142" x="38.3293" y="49.3574" width="73.2116" height="73.2116" filterUnits="userSpaceOnUse" color-interpolation-filters="sRGB">
<feFlood flood-opacity="0" result="BackgroundImageFix"/>
<feColorMatrix in="SourceAlpha" type="matrix" values="0 0 0 0 0 0 0 0 0 0 0 0 0 0 0 0 0 0 127 0" result="hardAlpha"/>
<feMorphology radius="1" operator="dilate" in="SourceAlpha" result="effect1_dropShadow_399_1142"/>
<feOffset/>
<feGaussianBlur stdDeviation="5.05"/>
<feComposite in2="hardAlpha" operator="out"/>
<feColorMatrix type="matrix" values="0 0 0 0 0.843137 0 0 0 0 0.556863 0 0 0 0 0.301961 0 0 0 1 0"/>
<feBlend mode="normal" in2="BackgroundImageFix" result="effect1_dropShadow_399_1142"/>
<feBlend mode="normal" in="SourceGraphic" in2="effect1_dropShadow_399_1142" result="shape"/>
</filter>
<filter id="filter1_d_399_1142" x="163.999" y="21.509" width="130.893" height="130.893" filterUnits="userSpaceOnUse" color-interpolation-filters="sRGB">
<feFlood flood-opacity="0" result="BackgroundImageFix"/>
<feColorMatrix in="SourceAlpha" type="matrix" values="0 0 0 0 0 0 0 0 0 0 0 0 0 0 0 0 0 0 127 0" result="hardAlpha"/>
<feMorphology radius="5" operator="dilate" in="SourceAlpha" result="effect1_dropShadow_399_1142"/>
<feOffset/>
<feGaussianBlur stdDeviation="19.25"/>
<feComposite in2="hardAlpha" operator="out"/>
<feColorMatrix type="matrix" values="0 0 0 0 0.843137 0 0 0 0 0.556863 0 0 0 0 0.301961 0 0 0 0.8 0"/>
<feBlend mode="normal" in2="BackgroundImageFix" result="effect1_dropShadow_399_1142"/>
<feBlend mode="normal" in="SourceGraphic" in2="effect1_dropShadow_399_1142" result="shape"/>
</filter>
</defs>
</svg>
