<svg width="20" height="19" viewBox="0 0 20 19" fill="none" xmlns="http://www.w3.org/2000/svg">
<path d="M8.16193 1.20024C9.19387 0.479327 10.5661 0.479328 11.5981 1.20024L17.4322 5.27595C18.5251 6.03946 18.983 7.43262 18.5562 8.69566L16.3765 15.1461C15.9646 16.3651 14.8212 17.1857 13.5344 17.1857H6.22559C4.93884 17.1857 3.7954 16.3651 3.38347 15.1461L1.20377 8.69566C0.77697 7.43263 1.2349 6.03946 2.32781 5.27595L8.16193 1.20024Z" fill="#888430"/>
<path d="M9.32073 4.93737C9.65871 4.70935 10.1013 4.70935 10.4393 4.93737L14.3003 7.54219C14.677 7.79634 14.835 8.27253 14.6849 8.70146L13.2414 12.8269C13.101 13.228 12.7224 13.4966 12.2975 13.4966H7.46252C7.03755 13.4966 6.65899 13.228 6.51864 12.8269L5.07509 8.70146C4.92501 8.27253 5.08299 7.79634 5.45971 7.54219L9.32073 4.93737Z" fill="#AAA75B"/>
</svg>
