<svg width="68" height="39" viewBox="0 0 68 39" fill="none" xmlns="http://www.w3.org/2000/svg">
<path d="M66.2308 26.7679C66.7276 26.1589 66.6367 25.2625 66.0277 24.7657L47.9216 9.99526C41.8317 5.02731 32.8675 5.93683 27.8996 12.0267C27.4028 12.6357 27.4937 13.5321 28.1027 14.0289L46.2089 28.7994C52.2987 33.7673 61.2629 32.8578 66.2308 26.7679Z" fill="#CCF751" fill-opacity="0.7"/>
<path d="M0.951318 12.0915C6.20522 5.41356 15.8779 4.25913 22.5559 9.51304L41.3073 24.2658C41.9751 24.7912 42.0906 25.7584 41.5652 26.4262C36.3113 33.1042 26.6386 34.2586 19.9606 29.0047L1.20917 14.252C0.541372 13.7266 0.425928 12.7593 0.951318 12.0915Z" fill="#FD5254" fill-opacity="0.7"/>
<g filter="url(#filter0_d_1_2675)">
<path d="M52.7917 26.5211L44.9536 19.3962L42.865 21.6938C42.75 21.8203 42.5395 21.7535 42.5186 21.5838L41.5721 13.9299L49.2813 14.1441C49.4522 14.1489 49.5388 14.352 49.4238 14.4786L47.3352 16.7762L55.1733 23.9012" stroke="white" stroke-width="2"/>
</g>
<g filter="url(#filter1_d_1_2675)">
<path d="M15.6436 11.6731L23.6408 18.6191L25.6769 16.2748C25.789 16.1457 26.001 16.2078 26.0258 16.377L27.145 24.0075L19.433 23.9676C19.262 23.9668 19.1709 23.7656 19.283 23.6365L21.3191 21.2922L13.3218 14.3463" stroke="white" stroke-width="2"/>
</g>
<defs>
<filter id="filter0_d_1_2675" x="36.437" y="12.898" width="23.4092" height="22.3631" filterUnits="userSpaceOnUse" color-interpolation-filters="sRGB">
<feFlood flood-opacity="0" result="BackgroundImageFix"/>
<feColorMatrix in="SourceAlpha" type="matrix" values="0 0 0 0 0 0 0 0 0 0 0 0 0 0 0 0 0 0 127 0" result="hardAlpha"/>
<feOffset dy="4"/>
<feGaussianBlur stdDeviation="2"/>
<feComposite in2="hardAlpha" operator="out"/>
<feColorMatrix type="matrix" values="0 0 0 0 0 0 0 0 0 0 0 0 0 0 0 0 0 0 0.25 0"/>
<feBlend mode="normal" in2="BackgroundImageFix" result="effect1_dropShadow_1_2675"/>
<feBlend mode="normal" in="SourceGraphic" in2="effect1_dropShadow_1_2675" result="shape"/>
</filter>
<filter id="filter1_d_1_2675" x="8.66602" y="10.9182" width="23.6372" height="22.0953" filterUnits="userSpaceOnUse" color-interpolation-filters="sRGB">
<feFlood flood-opacity="0" result="BackgroundImageFix"/>
<feColorMatrix in="SourceAlpha" type="matrix" values="0 0 0 0 0 0 0 0 0 0 0 0 0 0 0 0 0 0 127 0" result="hardAlpha"/>
<feOffset dy="4"/>
<feGaussianBlur stdDeviation="2"/>
<feComposite in2="hardAlpha" operator="out"/>
<feColorMatrix type="matrix" values="0 0 0 0 0 0 0 0 0 0 0 0 0 0 0 0 0 0 0.25 0"/>
<feBlend mode="normal" in2="BackgroundImageFix" result="effect1_dropShadow_1_2675"/>
<feBlend mode="normal" in="SourceGraphic" in2="effect1_dropShadow_1_2675" result="shape"/>
</filter>
</defs>
</svg>
