<svg width="43" height="43" viewBox="0 0 43 43" fill="none" xmlns="http://www.w3.org/2000/svg">
<g clip-path="url(#clip0_105_584)">
<path d="M0 20.64C0 10.9102 0 6.04532 3.02266 3.02266C6.04532 0 10.9102 0 20.64 0H22.36C32.0898 0 36.9546 0 39.9774 3.02266C43 6.04532 43 10.9102 43 20.64V22.36C43 32.0898 43 36.9546 39.9774 39.9774C36.9546 43 32.0898 43 22.36 43H20.64C10.9102 43 6.04532 43 3.02266 39.9774C0 36.9546 0 32.0898 0 22.36V20.64Z" fill="#0077FF"/>
<path d="M22.8796 30.978C13.0792 30.978 7.48926 24.2592 7.25635 13.0792H12.1655C12.3268 21.2851 15.9458 24.7609 18.8125 25.4776V13.0792H23.4352V20.1563C26.266 19.8517 29.2398 16.6267 30.2432 13.0792H34.8657C34.0953 17.4509 30.8703 20.6759 28.577 22.0017C30.8703 23.0767 34.5434 25.8896 35.9409 30.978H30.8524C29.7595 27.5738 27.0364 24.9401 23.4352 24.5817V30.978H22.8796Z" fill="white"/>
</g>
<defs>
<clipPath id="clip0_105_584">
<rect width="43" height="43" fill="white"/>
</clipPath>
</defs>
</svg>
