<svg width="26" height="25" viewBox="0 0 26 25" fill="none" xmlns="http://www.w3.org/2000/svg">
<path d="M11.2819 1.20024C12.3139 0.479328 13.6861 0.479329 14.7181 1.20024L23.5195 7.3489C24.6124 8.11241 25.0703 9.50557 24.6435 10.7686L21.3304 20.5731C20.9185 21.7921 19.775 22.6127 18.4883 22.6127H7.5117C6.22495 22.6127 5.08151 21.7921 4.66958 20.5731L1.35647 10.7686C0.929673 9.50557 1.3876 8.11241 2.48052 7.34889L11.2819 1.20024Z" fill="#888430"/>
<path d="M12.4407 6.37731C12.7787 6.14929 13.2213 6.14929 13.5593 6.37731L19.0181 10.0601C19.3948 10.3142 19.5528 10.7904 19.4027 11.2193L17.3488 17.0889C17.2085 17.49 16.8299 17.7586 16.405 17.7586H9.59504C9.17007 17.7586 8.79152 17.49 8.65116 17.0889L6.59732 11.2193C6.44723 10.7904 6.60522 10.3142 6.98193 10.0601L12.4407 6.37731Z" fill="#AAA75B"/>
</svg>
