<svg width="50" height="53" viewBox="0 0 50 53" fill="none" xmlns="http://www.w3.org/2000/svg">
<circle cx="25" cy="25" r="25" fill="#D9D9D9"/>
<circle cx="25.5" cy="14.5" r="6.5" fill="#777777"/>
<path d="M12.0056 38.518C12.0043 36.7448 12.3522 34.9888 13.0296 33.3501C13.7069 31.7114 14.7004 30.2222 15.9532 28.9674C17.2061 27.7127 18.6938 26.717 20.3315 26.0372C21.9692 25.3574 23.7247 25.0068 25.4979 25.0055C27.271 25.0042 29.0271 25.3521 30.6658 26.0294C32.3045 26.7068 33.7937 27.7002 35.0485 28.9531C36.3032 30.206 37.2989 31.6937 37.9787 33.3314C38.6585 34.9691 39.009 36.7246 39.0104 38.4977L25.508 38.5079L12.0056 38.518Z" fill="#777777"/>
</svg>
