<svg width="28" height="28" viewBox="0 0 28 28" fill="none" xmlns="http://www.w3.org/2000/svg">
<path d="M16.3337 8.16669V8.16669C16.3337 6.76222 16.3337 6.05999 15.9966 5.55555C15.8507 5.33717 15.6632 5.14966 15.4448 5.00375C14.9404 4.66669 14.2381 4.66669 12.8337 4.66669H8.66699C6.78137 4.66669 5.83857 4.66669 5.25278 5.25247C4.66699 5.83826 4.66699 6.78107 4.66699 8.66669V12.8334C4.66699 14.2378 4.66699 14.94 5.00405 15.4445C5.14997 15.6629 5.33747 15.8504 5.55585 15.9963C6.0603 16.3334 6.76253 16.3334 8.16699 16.3334V16.3334" stroke="#A4A4A4" stroke-width="2"/>
<rect x="11.667" y="11.6667" width="11.6667" height="11.6667" rx="2" stroke="#A4A4A4" stroke-width="2"/>
</svg>
