<svg width="18" height="18" viewBox="0 0 18 18" fill="none" xmlns="http://www.w3.org/2000/svg">
<path d="M15 7.5L15.7071 8.20711L16.4142 7.5L15.7071 6.79289L15 7.5ZM2 13.5C2 14.0523 2.44771 14.5 3 14.5C3.55229 14.5 4 14.0523 4 13.5L2 13.5ZM11.9571 11.9571L15.7071 8.20711L14.2929 6.79289L10.5429 10.5429L11.9571 11.9571ZM15.7071 6.79289L11.9571 3.04289L10.5429 4.45711L14.2929 8.20711L15.7071 6.79289ZM15 6.5L9 6.5L9 8.5L15 8.5L15 6.5ZM9 6.5C5.13401 6.5 2 9.63401 2 13.5L4 13.5C4 10.7386 6.23858 8.5 9 8.5L9 6.5Z" fill="#A4A4A4"/>
</svg>
