<svg width="21" height="24" viewBox="0 0 21 24" fill="none" xmlns="http://www.w3.org/2000/svg">
<path d="M1 12.0129C1 10.2025 1 9.29734 1.36595 8.50169C1.7319 7.70603 2.41915 7.11696 3.79367 5.9388L5.127 4.79594C7.61143 2.66644 8.85364 1.60168 10.3333 1.60168C11.813 1.60168 13.0552 2.66644 15.5397 4.79594L16.873 5.9388C18.2475 7.11696 18.9348 7.70603 19.3007 8.50169C19.6667 9.29734 19.6667 10.2025 19.6667 12.0129V17.6667C19.6667 20.1809 19.6667 21.4379 18.8856 22.219C18.1046 23 16.8475 23 14.3333 23H6.33333C3.81918 23 2.5621 23 1.78105 22.219C1 21.4379 1 20.1809 1 17.6667V12.0129Z" stroke="#CCC3C3" stroke-width="2"/>
<path d="M13.6667 23V16C13.6667 15.4477 13.219 15 12.6667 15H8C7.44772 15 7 15.4477 7 16V23" stroke="#CCC3C3" stroke-width="2" stroke-linecap="round" stroke-linejoin="round"/>
</svg>
