<svg width="25" height="25" viewBox="0 0 25 25" fill="none" xmlns="http://www.w3.org/2000/svg">
<path d="M22.1992 7.16503L17.835 2.80175C17.6899 2.65662 17.5176 2.5415 17.328 2.46295C17.1384 2.38441 16.9352 2.34398 16.73 2.34398C16.5248 2.34398 16.3216 2.38441 16.132 2.46295C15.9424 2.5415 15.7701 2.65662 15.625 2.80175L3.58302 14.8437C3.43729 14.9883 3.32176 15.1604 3.24313 15.35C3.1645 15.5396 3.12435 15.743 3.12501 15.9482V20.3125C3.12501 20.7269 3.28963 21.1243 3.58265 21.4173C3.87568 21.7104 4.27311 21.875 4.68751 21.875H21.0938C21.301 21.875 21.4997 21.7927 21.6462 21.6462C21.7927 21.4997 21.875 21.3009 21.875 21.0937C21.875 20.8865 21.7927 20.6878 21.6462 20.5413C21.4997 20.3948 21.301 20.3125 21.0938 20.3125H11.2617L22.1992 9.37499C22.3444 9.2299 22.4595 9.05763 22.538 8.86804C22.6166 8.67844 22.657 8.47523 22.657 8.27001C22.657 8.06479 22.6166 7.86158 22.538 7.67199C22.4595 7.48239 22.3444 7.31013 22.1992 7.16503ZM9.05177 20.3125H4.68751V15.9482L13.2813 7.35448L17.6455 11.7187L9.05177 20.3125ZM18.75 10.6143L14.3867 6.24999L16.7305 3.90624L21.0938 8.2705L18.75 10.6143Z" fill="#CCC3C3"/>
</svg>
