<svg width="24" height="24" viewBox="0 0 24 24" fill="none" xmlns="http://www.w3.org/2000/svg">
<path d="M21 5L19.0112 6.36374C18.6782 6.59208 18.2839 6.71429 17.8802 6.71429H13.3078C12.6556 6.71429 12.0554 7.07014 11.7425 7.64233V7.64233C11.3165 8.42134 11.5281 9.39507 12.2391 9.92691L15.0938 12.0624C16.8142 13.3493 17.7152 15.4579 17.456 17.5907L17.3608 18.3737C17.2872 18.9797 17.1444 19.5753 16.9353 20.1488L16.625 21" stroke="#CCC3C3" stroke-width="2"/>
<path d="M1 10.1667L4.90751 9.48285C6.25959 9.24624 7.44273 10.4108 7.22755 11.7664L6.9898 13.2642C6.73026 14.8994 7.54223 16.518 9.00812 17.2876V17.2876C10.18 17.9028 10.7855 19.2343 10.4789 20.5219L9.88889 23" stroke="#CCC3C3" stroke-width="2"/>
<circle cx="12" cy="12" r="11" stroke="#CCC3C3" stroke-width="2"/>
</svg>
